<svg xmlns="http://www.w3.org/2000/svg" xmlns:xlink="http://www.w3.org/1999/xlink"
    zoomAndPan="magnify" preserveAspectRatio="xMidYMid meet" version="1.0"
    viewBox="19.22 123.4 336.55 128.2">
    <defs>
        <g />
        <clipPath id="03da1d4e1b">
            <path
                d="M 30 134.148438 L 344.972656 134.148438 L 344.972656 241 L 30 241 Z M 30 134.148438 "
                clip-rule="nonzero" />
        </clipPath>
        <clipPath id="cce90a8737">
            <path
                d="M 29.222656 187.5 C 29.222656 217.378906 53.445312 241.601562 83.324219 241.601562 L 291.675781 241.601562 C 321.554688 241.601562 345.777344 217.378906 345.777344 187.5 C 345.777344 157.621094 321.554688 133.398438 291.675781 133.398438 L 83.324219 133.398438 C 53.445312 133.398438 29.222656 157.621094 29.222656 187.5 Z M 29.222656 187.5 "
                clip-rule="nonzero" />
        </clipPath>
        <clipPath id="0b5b74e729">
            <path
                d="M 83.324219 134.296875 L 291.675781 134.296875 C 321.058594 134.296875 344.878906 158.117188 344.878906 187.5 C 344.878906 216.882812 321.058594 240.703125 291.675781 240.703125 L 83.324219 240.703125 C 53.941406 240.703125 30.121094 216.882812 30.121094 187.5 C 30.121094 158.117188 53.941406 134.296875 83.324219 134.296875 Z M 83.324219 134.296875 "
                clip-rule="nonzero" />
        </clipPath>
        <clipPath id="fdbe14b101">
            <path
                d="M 29.222656 133.398438 L 345.722656 133.398438 L 345.722656 241.398438 L 29.222656 241.398438 Z M 29.222656 133.398438 "
                clip-rule="nonzero" />
        </clipPath>
        <clipPath id="527d77ca77">
            <path
                d="M 29.222656 187.5 C 29.222656 217.378906 53.445312 241.601562 83.324219 241.601562 L 291.675781 241.601562 C 321.554688 241.601562 345.777344 217.378906 345.777344 187.5 C 345.777344 157.621094 321.554688 133.398438 291.675781 133.398438 L 83.324219 133.398438 C 53.445312 133.398438 29.222656 157.621094 29.222656 187.5 Z M 29.222656 187.5 "
                clip-rule="nonzero" />
        </clipPath>
        <clipPath id="349720bd96">
            <path
                d="M 29.222656 187.496094 C 29.222656 217.375 53.441406 241.597656 83.320312 241.597656 L 291.667969 241.597656 C 321.546875 241.597656 345.769531 217.375 345.769531 187.496094 C 345.769531 157.617188 321.546875 133.398438 291.667969 133.398438 L 83.320312 133.398438 C 53.441406 133.398438 29.222656 157.617188 29.222656 187.496094 Z M 29.222656 187.496094 "
                clip-rule="nonzero" />
        </clipPath>
        <clipPath id="f0b9536037">
            <path
                d="M 254.589844 157.550781 L 314.589844 157.550781 L 314.589844 217.550781 L 254.589844 217.550781 Z M 254.589844 157.550781 "
                clip-rule="nonzero" />
        </clipPath>
    </defs>
    <g clip-path="url(#03da1d4e1b)">
        <g clip-path="url(#cce90a8737)">
            <g clip-path="url(#0b5b74e729)">
                <path fill="#000000"
                    d="M 291.484375 241.382812 L 83.4375 241.382812 C 53.613281 241.382812 29.351562 217.160156 29.351562 187.390625 C 29.351562 157.617188 53.613281 133.394531 83.4375 133.394531 L 291.484375 133.394531 C 321.308594 133.394531 345.570312 157.617188 345.570312 187.390625 C 345.570312 217.160156 321.308594 241.382812 291.484375 241.382812 Z M 83.4375 134.035156 C 53.964844 134.035156 29.992188 157.96875 29.992188 187.390625 C 29.992188 216.808594 53.964844 240.742188 83.4375 240.742188 L 291.484375 240.742188 C 320.957031 240.742188 344.933594 216.808594 344.933594 187.390625 C 344.933594 157.96875 320.957031 134.035156 291.484375 134.035156 Z M 83.4375 134.035156 "
                    fill-opacity="1" fill-rule="nonzero" />
            </g>
        </g>
    </g>
    <g clip-path="url(#fdbe14b101)">
        <g clip-path="url(#527d77ca77)">
            <g clip-path="url(#349720bd96)">
                <path stroke-linecap="butt"
                    transform="matrix(0.75, 0, 0, 0.75, 29.220762, 133.397276)" fill="none"
                    stroke-linejoin="miter"
                    d="M 0.00252511 72.131757 C 0.00252511 111.970299 32.294192 144.267174 72.132734 144.267174 L 349.929609 144.267174 C 389.768151 144.267174 422.065026 111.970299 422.065026 72.131757 C 422.065026 32.293215 389.768151 0.00154861 349.929609 0.00154861 L 72.132734 0.00154861 C 32.294192 0.00154861 0.00252511 32.293215 0.00252511 72.131757 Z M 0.00252511 72.131757 "
                    stroke="#000000" stroke-width="20" stroke-opacity="1" stroke-miterlimit="4" />
            </g>
        </g>
    </g>
    <g clip-path="url(#f0b9536037)">
        <path fill="#000000"
            d="M 293.152344 201.425781 L 307.851562 216.113281 C 309.304688 217.570312 311.667969 217.570312 313.121094 216.113281 C 314.578125 214.660156 314.578125 212.296875 313.121094 210.839844 L 298.4375 196.160156 C 301.390625 192.140625 303.136719 187.179688 303.136719 181.8125 C 303.136719 168.421875 292.265625 157.550781 278.875 157.550781 C 265.484375 157.550781 254.609375 168.421875 254.609375 181.8125 C 254.609375 195.203125 265.484375 206.074219 278.875 206.074219 C 284.210938 206.074219 289.144531 204.347656 293.152344 201.425781 Z M 278.875 165.007812 C 288.148438 165.007812 295.679688 172.539062 295.679688 181.8125 C 295.679688 191.085938 288.148438 198.617188 278.875 198.617188 C 269.597656 198.617188 262.070312 191.085938 262.070312 181.8125 C 262.070312 172.539062 269.597656 165.007812 278.875 165.007812 Z M 278.875 165.007812 "
            fill-opacity="1" fill-rule="evenodd" />
    </g>
    <g fill="#000000" fill-opacity="1">
        <g transform="translate(63.926991, 210.749986)">
            <g>
                <path
                    d="M 27.648438 -27.503906 C 24.769531 -28.65625 14.183594 -30.238281 14.183594 -34.632812 C 14.183594 -37.871094 18.144531 -38.808594 20.519531 -38.808594 C 22.679688 -38.808594 25.273438 -38.160156 26.640625 -36.863281 C 27.503906 -36 27.863281 -35.425781 28.152344 -34.703125 C 28.511719 -33.769531 28.726562 -32.761719 30.097656 -32.761719 L 37.152344 -32.761719 C 38.808594 -32.761719 39.238281 -33.046875 39.238281 -34.777344 C 39.238281 -44.28125 29.230469 -48.457031 20.089844 -48.457031 C 11.089844 -48.097656 2.59375 -43.488281 2.59375 -34.128906 C 2.59375 -24.984375 9.289062 -22.105469 16.558594 -19.800781 C 22.679688 -17.855469 29.089844 -17.785156 29.089844 -13.753906 C 29.089844 -9.71875 25.921875 -8.855469 22.03125 -8.855469 C 19.367188 -8.855469 16.414062 -9.503906 14.976562 -11.230469 C 14.039062 -12.3125 13.679688 -13.246094 13.609375 -14.183594 C 13.464844 -15.984375 12.671875 -16.199219 11.015625 -16.199219 L 4.03125 -16.199219 C 2.375 -16.199219 1.945312 -15.839844 1.945312 -14.183594 C 1.945312 -4.105469 12.3125 1.078125 21.3125 1.078125 C 32.398438 1.078125 40.464844 -3.816406 40.464844 -14.039062 C 40.464844 -23.832031 32.832031 -25.921875 27.648438 -27.503906 Z M 27.648438 -27.503906 " />
            </g>
        </g>
    </g>
    <g fill="#000000" fill-opacity="1">
        <g transform="translate(107.486966, 210.749986)">
            <g>
                <path
                    d="M 42.550781 -15.191406 L 42.550781 -32.183594 C 42.550781 -43.558594 31.753906 -48.457031 23.183594 -48.457031 C 14.617188 -48.457031 3.960938 -43.558594 3.960938 -32.183594 L 3.960938 -15.191406 C 3.960938 -3.816406 14.617188 1.078125 23.183594 1.078125 C 31.753906 1.078125 42.550781 -3.816406 42.550781 -15.191406 Z M 31.246094 -31.175781 L 31.246094 -16.199219 C 31.246094 -11.59375 27.9375 -8.929688 23.183594 -8.929688 C 18.503906 -8.929688 15.191406 -11.59375 15.191406 -16.199219 L 15.191406 -31.175781 C 15.191406 -35.785156 18.503906 -38.449219 23.183594 -38.449219 C 27.9375 -38.449219 31.246094 -35.785156 31.246094 -31.175781 Z M 31.246094 -31.175781 " />
            </g>
        </g>
    </g>
    <g fill="#000000" fill-opacity="1">
        <g transform="translate(153.926939, 210.749986)">
            <g>
                <path
                    d="M 37.367188 -10.078125 L 16.632812 -10.078125 L 16.632812 -45.289062 C 16.632812 -46.945312 15.839844 -47.375 14.542969 -47.375 L 7.414062 -47.375 C 6.121094 -47.375 5.328125 -46.945312 5.328125 -45.289062 L 5.328125 -2.089844 C 5.328125 -0.792969 5.761719 0 7.414062 0 L 37.367188 0 C 39.023438 0 39.457031 -0.792969 39.457031 -2.089844 L 39.457031 -7.992188 C 39.457031 -9.289062 39.023438 -10.078125 37.367188 -10.078125 Z M 37.367188 -10.078125 " />
            </g>
        </g>
    </g>
    <g fill="#000000" fill-opacity="1">
        <g transform="translate(195.830921, 210.749986)">
            <g>
                <path
                    d="M 39.671875 -10.078125 L 16.703125 -10.078125 L 16.703125 -19.585938 L 36 -19.585938 C 37.65625 -19.585938 38.089844 -20.375 38.089844 -21.671875 L 38.089844 -27.289062 C 38.089844 -28.585938 37.65625 -29.375 36 -29.375 L 16.703125 -29.375 L 16.703125 -37.222656 L 38.449219 -37.222656 C 40.105469 -37.222656 40.535156 -38.015625 40.535156 -39.3125 L 40.535156 -45.289062 C 40.535156 -46.585938 40.105469 -47.375 38.449219 -47.375 L 7.414062 -47.375 C 5.761719 -47.375 5.328125 -46.585938 5.328125 -45.289062 L 5.328125 -2.089844 C 5.328125 -0.792969 5.761719 0 7.414062 0 L 39.671875 0 C 41.328125 0 41.761719 -0.792969 41.761719 -2.089844 L 41.761719 -7.992188 C 41.761719 -9.289062 41.328125 -10.078125 39.671875 -10.078125 Z M 39.671875 -10.078125 " />
            </g>
        </g>
    </g>
</svg>