<svg xmlns="http://www.w3.org/2000/svg" xmlns:xlink="http://www.w3.org/1999/xlink" zoomAndPan="magnify" preserveAspectRatio="xMidYMid meet" version="1.0" viewBox="19.22 123.4 336.55 128.2"><defs><g/><clipPath id="f9f1f2f17b"><path d="M 30 134.148438 L 344.972656 134.148438 L 344.972656 241 L 30 241 Z M 30 134.148438 " clip-rule="nonzero"/></clipPath><clipPath id="3e5fe5dde2"><path d="M 29.222656 187.5 C 29.222656 217.378906 53.445312 241.601562 83.324219 241.601562 L 291.675781 241.601562 C 321.554688 241.601562 345.777344 217.378906 345.777344 187.5 C 345.777344 157.621094 321.554688 133.398438 291.675781 133.398438 L 83.324219 133.398438 C 53.445312 133.398438 29.222656 157.621094 29.222656 187.5 Z M 29.222656 187.5 " clip-rule="nonzero"/></clipPath><clipPath id="43f2496d4c"><path d="M 83.324219 134.296875 L 291.675781 134.296875 C 321.058594 134.296875 344.878906 158.117188 344.878906 187.5 C 344.878906 216.882812 321.058594 240.703125 291.675781 240.703125 L 83.324219 240.703125 C 53.941406 240.703125 30.121094 216.882812 30.121094 187.5 C 30.121094 158.117188 53.941406 134.296875 83.324219 134.296875 Z M 83.324219 134.296875 " clip-rule="nonzero"/></clipPath><clipPath id="30160a5024"><path d="M 29.222656 133.398438 L 345.722656 133.398438 L 345.722656 241.398438 L 29.222656 241.398438 Z M 29.222656 133.398438 " clip-rule="nonzero"/></clipPath><clipPath id="001a1c5f48"><path d="M 29.222656 187.5 C 29.222656 217.378906 53.445312 241.601562 83.324219 241.601562 L 291.675781 241.601562 C 321.554688 241.601562 345.777344 217.378906 345.777344 187.5 C 345.777344 157.621094 321.554688 133.398438 291.675781 133.398438 L 83.324219 133.398438 C 53.445312 133.398438 29.222656 157.621094 29.222656 187.5 Z M 29.222656 187.5 " clip-rule="nonzero"/></clipPath><clipPath id="c186fcd4af"><path d="M 29.222656 187.496094 C 29.222656 217.375 53.441406 241.597656 83.320312 241.597656 L 291.667969 241.597656 C 321.546875 241.597656 345.769531 217.375 345.769531 187.496094 C 345.769531 157.617188 321.546875 133.398438 291.667969 133.398438 L 83.320312 133.398438 C 53.441406 133.398438 29.222656 157.617188 29.222656 187.496094 Z M 29.222656 187.496094 " clip-rule="nonzero"/></clipPath><clipPath id="215e48def4"><path d="M 254.589844 157.550781 L 314.589844 157.550781 L 314.589844 217.550781 L 254.589844 217.550781 Z M 254.589844 157.550781 " clip-rule="nonzero"/></clipPath></defs><g clip-path="url(#f9f1f2f17b)"><g clip-path="url(#3e5fe5dde2)"><g clip-path="url(#43f2496d4c)"><path fill="#ffffff" d="M 291.523438 241.582031 L 83.445312 241.582031 C 53.617188 241.582031 29.351562 217.316406 29.351562 187.488281 C 29.351562 157.664062 53.617188 133.398438 83.445312 133.398438 L 291.523438 133.398438 C 321.351562 133.398438 345.617188 157.664062 345.617188 187.488281 C 345.617188 217.316406 321.351562 241.582031 291.523438 241.582031 Z M 83.445312 134.035156 C 53.96875 134.035156 29.992188 158.015625 29.992188 187.488281 C 29.992188 216.964844 53.96875 240.941406 83.445312 240.941406 L 291.523438 240.941406 C 321 240.941406 344.980469 216.964844 344.980469 187.488281 C 344.980469 158.015625 321 134.035156 291.523438 134.035156 Z M 83.445312 134.035156 " fill-opacity="1" fill-rule="nonzero"/></g></g></g><g clip-path="url(#30160a5024)"><g clip-path="url(#001a1c5f48)"><g clip-path="url(#c186fcd4af)"><path stroke-linecap="butt" transform="matrix(0.75, 0, 0, 0.75, 29.220762, 133.397276)" fill="none" stroke-linejoin="miter" d="M 0.00252511 72.131757 C 0.00252511 111.970299 32.294192 144.267174 72.132734 144.267174 L 349.929609 144.267174 C 389.768151 144.267174 422.065026 111.970299 422.065026 72.131757 C 422.065026 32.293215 389.768151 0.00154861 349.929609 0.00154861 L 72.132734 0.00154861 C 32.294192 0.00154861 0.00252511 32.293215 0.00252511 72.131757 Z M 0.00252511 72.131757 " stroke="#ffffff" stroke-width="20" stroke-opacity="1" stroke-miterlimit="4"/></g></g></g><g clip-path="url(#215e48def4)"><path fill="#ffffff" d="M 293.085938 201.347656 L 307.757812 216.011719 C 309.207031 217.464844 311.566406 217.464844 313.019531 216.011719 C 314.472656 214.558594 314.472656 212.199219 313.019531 210.746094 L 298.359375 196.09375 C 301.308594 192.082031 303.050781 187.128906 303.050781 181.769531 C 303.050781 168.402344 292.199219 157.550781 278.832031 157.550781 C 265.464844 157.550781 254.609375 168.402344 254.609375 181.769531 C 254.609375 195.136719 265.464844 205.988281 278.832031 205.988281 C 284.160156 205.988281 289.085938 204.265625 293.085938 201.347656 Z M 278.832031 164.992188 C 288.089844 164.992188 295.609375 172.511719 295.609375 181.769531 C 295.609375 191.027344 288.089844 198.546875 278.832031 198.546875 C 269.574219 198.546875 262.054688 191.027344 262.054688 181.769531 C 262.054688 172.511719 269.574219 164.992188 278.832031 164.992188 Z M 278.832031 164.992188 " fill-opacity="1" fill-rule="evenodd"/></g><g fill="#ffffff" fill-opacity="1"><g transform="translate(63.926991, 210.749986)"><g><path d="M 27.648438 -27.503906 C 24.769531 -28.65625 14.183594 -30.238281 14.183594 -34.632812 C 14.183594 -37.871094 18.144531 -38.808594 20.519531 -38.808594 C 22.679688 -38.808594 25.273438 -38.160156 26.640625 -36.863281 C 27.503906 -36 27.863281 -35.425781 28.152344 -34.703125 C 28.511719 -33.769531 28.726562 -32.761719 30.097656 -32.761719 L 37.152344 -32.761719 C 38.808594 -32.761719 39.238281 -33.046875 39.238281 -34.777344 C 39.238281 -44.28125 29.230469 -48.457031 20.089844 -48.457031 C 11.089844 -48.097656 2.59375 -43.488281 2.59375 -34.128906 C 2.59375 -24.984375 9.289062 -22.105469 16.558594 -19.800781 C 22.679688 -17.855469 29.089844 -17.785156 29.089844 -13.753906 C 29.089844 -9.71875 25.921875 -8.855469 22.03125 -8.855469 C 19.367188 -8.855469 16.414062 -9.503906 14.976562 -11.230469 C 14.039062 -12.3125 13.679688 -13.246094 13.609375 -14.183594 C 13.464844 -15.984375 12.671875 -16.199219 11.015625 -16.199219 L 4.03125 -16.199219 C 2.375 -16.199219 1.945312 -15.839844 1.945312 -14.183594 C 1.945312 -4.105469 12.3125 1.078125 21.3125 1.078125 C 32.398438 1.078125 40.464844 -3.816406 40.464844 -14.039062 C 40.464844 -23.832031 32.832031 -25.921875 27.648438 -27.503906 Z M 27.648438 -27.503906 "/></g></g></g><g fill="#ffffff" fill-opacity="1"><g transform="translate(107.486966, 210.749986)"><g><path d="M 42.550781 -15.191406 L 42.550781 -32.183594 C 42.550781 -43.558594 31.753906 -48.457031 23.183594 -48.457031 C 14.617188 -48.457031 3.960938 -43.558594 3.960938 -32.183594 L 3.960938 -15.191406 C 3.960938 -3.816406 14.617188 1.078125 23.183594 1.078125 C 31.753906 1.078125 42.550781 -3.816406 42.550781 -15.191406 Z M 31.246094 -31.175781 L 31.246094 -16.199219 C 31.246094 -11.59375 27.9375 -8.929688 23.183594 -8.929688 C 18.503906 -8.929688 15.191406 -11.59375 15.191406 -16.199219 L 15.191406 -31.175781 C 15.191406 -35.785156 18.503906 -38.449219 23.183594 -38.449219 C 27.9375 -38.449219 31.246094 -35.785156 31.246094 -31.175781 Z M 31.246094 -31.175781 "/></g></g></g><g fill="#ffffff" fill-opacity="1"><g transform="translate(153.926939, 210.749986)"><g><path d="M 37.367188 -10.078125 L 16.632812 -10.078125 L 16.632812 -45.289062 C 16.632812 -46.945312 15.839844 -47.375 14.542969 -47.375 L 7.414062 -47.375 C 6.121094 -47.375 5.328125 -46.945312 5.328125 -45.289062 L 5.328125 -2.089844 C 5.328125 -0.792969 5.761719 0 7.414062 0 L 37.367188 0 C 39.023438 0 39.457031 -0.792969 39.457031 -2.089844 L 39.457031 -7.992188 C 39.457031 -9.289062 39.023438 -10.078125 37.367188 -10.078125 Z M 37.367188 -10.078125 "/></g></g></g><g fill="#ffffff" fill-opacity="1"><g transform="translate(195.830921, 210.749986)"><g><path d="M 39.671875 -10.078125 L 16.703125 -10.078125 L 16.703125 -19.585938 L 36 -19.585938 C 37.65625 -19.585938 38.089844 -20.375 38.089844 -21.671875 L 38.089844 -27.289062 C 38.089844 -28.585938 37.65625 -29.375 36 -29.375 L 16.703125 -29.375 L 16.703125 -37.222656 L 38.449219 -37.222656 C 40.105469 -37.222656 40.535156 -38.015625 40.535156 -39.3125 L 40.535156 -45.289062 C 40.535156 -46.585938 40.105469 -47.375 38.449219 -47.375 L 7.414062 -47.375 C 5.761719 -47.375 5.328125 -46.585938 5.328125 -45.289062 L 5.328125 -2.089844 C 5.328125 -0.792969 5.761719 0 7.414062 0 L 39.671875 0 C 41.328125 0 41.761719 -0.792969 41.761719 -2.089844 L 41.761719 -7.992188 C 41.761719 -9.289062 41.328125 -10.078125 39.671875 -10.078125 Z M 39.671875 -10.078125 "/></g></g></g></svg>